<?xml version="1.0" encoding="UTF-8"?>
<!DOCTYPE svg PUBLIC "-//W3C//DTD SVG 1.1//EN" "http://www.w3.org/Graphics/SVG/1.1/DTD/svg11.dtd">
<svg xmlns="http://www.w3.org/2000/svg" version="1.1" width="1024px" height="1024px" style="shape-rendering:geometricPrecision; text-rendering:geometricPrecision; image-rendering:optimizeQuality; fill-rule:evenodd; clip-rule:evenodd" xmlns:xlink="http://www.w3.org/1999/xlink">
<g><path style="opacity:1" fill="#0a1f28" d="M -0.5,-0.5 C 90.1667,-0.5 180.833,-0.5 271.5,-0.5C 271.5,2.5 271.5,5.5 271.5,8.5C 276.167,8.5 278.5,10.8333 278.5,15.5C 276.167,15.5 273.833,15.5 271.5,15.5C 271.5,18.5 271.5,21.5 271.5,24.5C 276.302,24.2982 278.969,26.6315 279.5,31.5C 278.969,36.3685 276.302,38.7018 271.5,38.5C 271.5,41.5 271.5,44.5 271.5,47.5C 267.833,47.5 264.167,47.5 260.5,47.5C 259.947,54.7795 263.281,58.2795 270.5,58C 271.406,59.6995 271.739,61.5328 271.5,63.5C 276.833,63.5 282.167,63.5 287.5,63.5C 287.5,65.5 287.5,67.5 287.5,69.5C 282.167,69.5 276.833,69.5 271.5,69.5C 271.5,72.8333 271.5,76.1667 271.5,79.5C 276.833,79.5 282.167,79.5 287.5,79.5C 287.261,77.5328 287.594,75.6995 288.5,74C 295.719,74.2795 299.053,70.7795 298.5,63.5C 297.448,63.6495 296.448,63.4828 295.5,63C 296.029,59.4237 298.029,57.2571 301.5,56.5C 309.752,59.8459 314.085,56.8459 314.5,47.5C 321.5,47.5 328.5,47.5 335.5,47.5C 335.5,44.5 335.5,41.5 335.5,38.5C 330.909,38.7451 328.242,36.5784 327.5,32C 324.854,31.5026 322.187,31.3359 319.5,31.5C 319.5,33.5 319.5,35.5 319.5,37.5C 314.167,37.5 308.833,37.5 303.5,37.5C 303.5,35.5 303.5,33.5 303.5,31.5C 306.187,31.6641 308.854,31.4974 311.5,31C 312.029,27.4237 314.029,25.2571 317.5,24.5C 323.459,25.4141 329.459,25.7474 335.5,25.5C 335.5,27.5 335.5,29.5 335.5,31.5C 338.833,31.5 342.167,31.5 345.5,31.5C 345.5,26.1667 345.5,20.8333 345.5,15.5C 347.5,15.5 349.5,15.5 351.5,15.5C 351.5,18.5 351.5,21.5 351.5,24.5C 356.167,24.5 358.5,26.8333 358.5,31.5C 361.5,31.5 364.5,31.5 367.5,31.5C 367.261,29.5328 367.594,27.6995 368.5,26C 375.719,26.2795 379.053,22.7795 378.5,15.5C 380.167,15.5 381.833,15.5 383.5,15.5C 383.5,12.8333 383.5,10.1667 383.5,7.5C 386.167,7.5 388.833,7.5 391.5,7.5C 391.5,8.5 391.5,9.5 391.5,10.5C 394.167,10.5 396.833,10.5 399.5,10.5C 399.5,6.83333 399.5,3.16667 399.5,-0.5C 607.5,-0.5 815.5,-0.5 1023.5,-0.5C 1023.5,70.5 1023.5,141.5 1023.5,212.5C 1015.86,212.142 1012.19,215.809 1012.5,223.5C 1010.83,223.5 1009.17,223.5 1007.5,223.5C 1007.74,225.467 1007.41,227.301 1006.5,229C 999.281,228.721 995.947,232.221 996.5,239.5C 994.833,239.5 993.167,239.5 991.5,239.5C 991.5,241.833 991.5,244.167 991.5,246.5C 986.909,246.745 984.242,244.578 983.5,240C 984.116,235.24 986.782,232.74 991.5,232.5C 991.5,229.5 991.5,226.5 991.5,223.5C 988.5,223.5 985.5,223.5 982.5,223.5C 982.5,228.167 980.167,230.5 975.5,230.5C 975.5,235.833 975.5,241.167 975.5,246.5C 970.909,246.745 968.242,244.578 967.5,240C 968.448,239.517 969.448,239.351 970.5,239.5C 970.885,232.053 967.385,228.386 960,228.5C 959.501,223.845 959.334,219.179 959.5,214.5C 954.909,214.745 952.242,212.578 951.5,208C 952.448,207.517 953.448,207.351 954.5,207.5C 954.085,198.154 949.752,195.154 941.5,198.5C 938.029,197.743 936.029,195.576 935.5,192C 936.448,191.517 937.448,191.351 938.5,191.5C 938.885,184.053 935.385,180.386 928,180.5C 927.501,184.152 927.335,187.818 927.5,191.5C 925.5,191.5 923.5,191.5 921.5,191.5C 921.232,185.618 921.566,179.785 922.5,174C 922.026,171.251 921.026,168.751 919.5,166.5C 916.961,165.885 914.461,165.218 912,164.5C 911.501,170.491 911.334,176.491 911.5,182.5C 906.909,182.745 904.242,180.578 903.5,176C 900.854,175.503 898.187,175.336 895.5,175.5C 895.5,183.167 895.5,190.833 895.5,198.5C 889.476,197.937 887.809,195.103 890.5,190C 890.323,183.489 886.989,180.489 880.5,181C 879.594,179.301 879.261,177.467 879.5,175.5C 876.5,175.5 873.5,175.5 870.5,175.5C 870.5,180.167 868.167,182.5 863.5,182.5C 863.5,185.5 863.5,188.5 863.5,191.5C 866.5,191.5 869.5,191.5 872.5,191.5C 872.5,186.833 874.833,184.5 879.5,184.5C 879.666,188.514 879.499,192.514 879,196.5C 875.982,197.028 873.149,198.028 870.5,199.5C 869.757,201.638 869.09,203.804 868.5,206C 871.191,211.103 869.524,213.937 863.5,214.5C 863.5,217.5 863.5,220.5 863.5,223.5C 866.5,223.5 869.5,223.5 872.5,223.5C 872.424,219.648 874.257,217.315 878,216.5C 883.785,217.434 889.618,217.768 895.5,217.5C 895.5,221.833 895.5,226.167 895.5,230.5C 890.909,230.745 888.242,228.578 887.5,224C 884.854,223.503 882.187,223.336 879.5,223.5C 879.5,228.833 879.5,234.167 879.5,239.5C 884.833,239.5 890.167,239.5 895.5,239.5C 895.739,241.467 895.406,243.301 894.5,245C 887.281,244.721 883.947,248.221 884.5,255.5C 882.833,255.5 881.167,255.5 879.5,255.5C 879.335,259.182 879.501,262.848 880,266.5C 887.385,266.614 890.885,262.947 890.5,255.5C 894.846,255.666 899.179,255.499 903.5,255C 904.242,250.422 906.909,248.255 911.5,248.5C 911.5,250.833 911.5,253.167 911.5,255.5C 920.167,255.5 928.833,255.5 937.5,255.5C 937.5,250.167 937.5,244.833 937.5,239.5C 942.179,239.666 946.845,239.499 951.5,239C 952.242,234.422 954.909,232.255 959.5,232.5C 959.666,236.514 959.499,240.514 959,244.5C 951.615,244.386 948.115,248.053 948.5,255.5C 952.167,255.5 955.833,255.5 959.5,255.5C 959.666,262.508 959.5,269.508 959,276.5C 951.615,276.386 948.115,280.053 948.5,287.5C 952.167,287.5 955.833,287.5 959.5,287.5C 959.335,291.182 959.501,294.848 960,298.5C 967.385,298.614 970.885,294.947 970.5,287.5C 972.167,287.5 973.833,287.5 975.5,287.5C 975.5,285.167 975.5,282.833 975.5,280.5C 980.167,280.5 982.5,282.833 982.5,287.5C 985.5,287.5 988.5,287.5 991.5,287.5C 991.5,284.5 991.5,281.5 991.5,278.5C 986.833,278.5 984.5,276.167 984.5,271.5C 990.5,271.5 996.5,271.5 1002.5,271.5C 1002.09,262.154 997.752,259.154 989.5,262.5C 986.029,261.743 984.029,259.576 983.5,256C 986.146,255.503 988.813,255.336 991.5,255.5C 991.261,253.533 991.594,251.699 992.5,250C 999.719,250.279 1003.05,246.779 1002.5,239.5C 1004.17,239.5 1005.83,239.5 1007.5,239.5C 1007.26,237.533 1007.59,235.699 1008.5,234C 1015.72,234.279 1019.05,230.779 1018.5,223.5C 1020.17,223.5 1021.83,223.5 1023.5,223.5C 1023.5,383.5 1023.5,543.5 1023.5,703.5C 1020.83,703.5 1018.17,703.5 1015.5,703.5C 1015.12,708.941 1014.12,714.274 1012.5,719.5C 1010.83,719.5 1009.17,719.5 1007.5,719.5C 1007.5,711.167 1007.5,702.833 1007.5,694.5C 1002.83,694.5 1000.5,692.167 1000.5,687.5C 997.5,687.5 994.5,687.5 991.5,687.5C 991.739,689.467 991.406,691.301 990.5,693C 983.281,692.721 979.947,696.221 980.5,703.5C 978.833,703.5 977.167,703.5 975.5,703.5C 975.665,699.818 975.499,696.152 975,692.5C 967.615,692.386 964.115,696.053 964.5,703.5C 962.833,703.5 961.167,703.5 959.5,703.5C 959.665,699.818 959.499,696.152 959,692.5C 951.615,692.386 948.115,696.053 948.5,703.5C 946.833,703.5 945.167,703.5 943.5,703.5C 943.739,705.467 943.406,707.301 942.5,709C 935.281,708.721 931.947,712.221 932.5,719.5C 930.833,719.5 929.167,719.5 927.5,719.5C 927.5,724.833 927.5,730.167 927.5,735.5C 930.833,735.5 934.167,735.5 937.5,735.5C 937.5,730.167 937.5,724.833 937.5,719.5C 939.5,719.5 941.5,719.5 943.5,719.5C 943.5,722.5 943.5,725.5 943.5,728.5C 948.167,728.5 950.5,730.833 950.5,735.5C 948.167,735.5 945.833,735.5 943.5,735.5C 943.739,737.467 943.406,739.301 942.5,741C 935.281,740.721 931.947,744.221 932.5,751.5C 936.167,751.5 939.833,751.5 943.5,751.5C 943.739,753.467 943.406,755.301 942.5,757C 935.281,756.721 931.947,760.221 932.5,767.5C 936.167,767.5 939.833,767.5 943.5,767.5C 943.261,765.533 943.594,763.699 944.5,762C 951.719,762.279 955.053,758.779 954.5,751.5C 963.5,751.5 972.5,751.5 981.5,751.5C 981.5,756.833 981.5,762.167 981.5,767.5C 979.5,767.5 977.5,767.5 975.5,767.5C 975.739,769.467 975.406,771.301 974.5,773C 967.281,772.721 963.947,776.221 964.5,783.5C 968.167,783.5 971.833,783.5 975.5,783.5C 975.261,781.533 975.594,779.699 976.5,778C 983.719,778.279 987.053,774.779 986.5,767.5C 990.846,767.666 995.179,767.499 999.5,767C 1000.24,762.422 1002.91,760.255 1007.5,760.5C 1007.5,762.833 1007.5,765.167 1007.5,767.5C 1010.83,767.5 1014.17,767.5 1017.5,767.5C 1018.09,761.697 1017.42,756.197 1015.5,751C 1016.24,746.422 1018.91,744.255 1023.5,744.5C 1023.5,837.5 1023.5,930.5 1023.5,1023.5C 682.167,1023.5 340.833,1023.5 -0.5,1023.5C -0.5,1004.5 -0.5,985.5 -0.5,966.5C 4.06139,966.44 6.56139,964.107 7,959.5C 7.49935,964.823 7.66602,970.156 7.5,975.5C 10.1667,975.5 12.8333,975.5 15.5,975.5C 15.5,972.5 15.5,969.5 15.5,966.5C 10.8333,966.5 8.5,964.167 8.5,959.5C 10.8333,959.5 13.1667,959.5 15.5,959.5C 15.3337,952.492 15.5004,945.492 16,938.5C 23.385,938.614 26.885,934.947 26.5,927.5C 22.8333,927.5 19.1667,927.5 15.5,927.5C 15.5,914.5 15.5,901.5 15.5,888.5C 21.5244,889.063 23.1911,891.897 20.5,897C 21.0903,899.196 21.7569,901.362 22.5,903.5C 25.1488,904.972 27.9821,905.972 31,906.5C 31.4996,899.842 31.6663,893.175 31.5,886.5C 26.8333,886.5 24.5,884.167 24.5,879.5C 26.8333,879.5 29.1667,879.5 31.5,879.5C 31.6653,875.818 31.4986,872.152 31,868.5C 23.615,868.386 20.115,872.053 20.5,879.5C 18.8333,879.5 17.1667,879.5 15.5,879.5C 15.5,871.167 15.5,862.833 15.5,854.5C 10.6976,854.702 8.03094,852.369 7.5,847.5C 8.03094,842.631 10.6976,840.298 15.5,840.5C 15.5,842.833 15.5,845.167 15.5,847.5C 19.1667,847.5 22.8333,847.5 26.5,847.5C 27.0528,840.221 23.7194,836.721 16.5,837C 15.5939,835.301 15.2606,833.467 15.5,831.5C 13.5,831.5 11.5,831.5 9.5,831.5C 9.5,826.167 9.5,820.833 9.5,815.5C 11.5,815.5 13.5,815.5 15.5,815.5C 15.6653,811.818 15.4986,808.152 15,804.5C 7.615,804.386 4.115,808.053 4.5,815.5C 2.83333,815.5 1.16667,815.5 -0.5,815.5C -0.5,788.833 -0.5,762.167 -0.5,735.5C 2.83333,735.5 6.16667,735.5 9.5,735.5C 9.5,730.167 9.5,724.833 9.5,719.5C 15.1667,719.5 20.8333,719.5 26.5,719.5C 26.885,712.053 23.385,708.386 16,708.5C 15.5004,701.508 15.3337,694.508 15.5,687.5C 19.1667,687.5 22.8333,687.5 26.5,687.5C 26.885,680.053 23.385,676.386 16,676.5C 15.5,637.501 15.3333,598.501 15.5,559.5C 13.5,559.5 11.5,559.5 9.5,559.5C 9.5,548.833 9.5,538.167 9.5,527.5C 11.9032,527.607 13.7365,526.607 15,524.5C 15.6667,515.833 15.6667,507.167 15,498.5C 13.4912,496.081 11.3245,495.081 8.5,495.5C 9.33318,468.842 9.66652,442.176 9.5,415.5C 8.5,415.5 7.5,415.5 6.5,415.5C 7.83333,409.5 5.5,407.167 -0.5,408.5C -0.5,402.833 -0.5,397.167 -0.5,391.5C 5.16667,391.833 7.83333,389.167 7.5,383.5C 10.1667,383.5 12.8333,383.5 15.5,383.5C 15.5,388.833 15.5,394.167 15.5,399.5C 17.1667,399.5 18.8333,399.5 20.5,399.5C 20.115,406.947 23.615,410.614 31,410.5C 31.3333,405.167 31.6667,399.833 32,394.5C 39.385,394.614 42.885,390.947 42.5,383.5C 44.1667,383.5 45.8333,383.5 47.5,383.5C 47.2606,381.533 47.5939,379.699 48.5,378C 55.7194,378.279 59.0528,374.779 58.5,367.5C 54.8333,367.5 51.1667,367.5 47.5,367.5C 47.5,369.833 47.5,372.167 47.5,374.5C 42.7824,374.26 40.1157,371.76 39.5,367C 40.2422,362.422 42.9089,360.255 47.5,360.5C 47.5,357.5 47.5,354.5 47.5,351.5C 51.1667,351.5 54.8333,351.5 58.5,351.5C 58.0855,342.154 53.7521,339.154 45.5,342.5C 42.0286,341.743 40.0286,339.576 39.5,336C 42.146,335.503 44.8127,335.336 47.5,335.5C 47.2606,333.533 47.5939,331.699 48.5,330C 55.7077,330.291 59.041,326.791 58.5,319.5C 58.1457,316.749 57.479,314.083 56.5,311.5C 53.8512,310.028 51.0179,309.028 48,308.5C 47.5014,312.152 47.3347,315.818 47.5,319.5C 45.5,319.5 43.5,319.5 41.5,319.5C 41.2323,313.618 41.5656,307.785 42.5,302C 41.9097,299.804 41.2431,297.638 40.5,295.5C 37.8512,294.028 35.0179,293.028 32,292.5C 31.5014,296.152 31.3347,299.818 31.5,303.5C 29.8333,303.5 28.1667,303.5 26.5,303.5C 27.0528,296.221 23.7194,292.721 16.5,293C 15.5939,291.301 15.2606,289.467 15.5,287.5C 18.8333,287.5 22.1667,287.5 25.5,287.5C 25.2323,281.618 25.5656,275.785 26.5,270C 26.026,267.251 25.026,264.751 23.5,262.5C 20.9607,261.885 18.4607,261.218 16,260.5C 15.5005,266.491 15.3338,272.491 15.5,278.5C 10.9089,278.745 8.24219,276.578 7.5,272C 8.80695,266.746 9.47361,261.246 9.5,255.5C 9.46811,249.631 9.13478,243.798 8.5,238C 9.31457,234.257 11.6479,232.424 15.5,232.5C 15.5,234.833 15.5,237.167 15.5,239.5C 19.1667,239.5 22.8333,239.5 26.5,239.5C 26.885,232.053 23.385,228.386 16,228.5C 15.3333,214.5 15.3333,200.5 16,186.5C 23.385,186.614 26.885,182.947 26.5,175.5C 22.8333,175.5 19.1667,175.5 15.5,175.5C 15.5,172.5 15.5,169.5 15.5,166.5C 10.9386,166.44 8.43861,164.107 8,159.5C 7.50016,170.161 7.3335,180.828 7.5,191.5C 4.83333,191.5 2.16667,191.5 -0.5,191.5C -0.5,127.5 -0.5,63.5 -0.5,-0.5 Z"/></g>
<g><path style="opacity:1" fill="#082028" d="M 271.5,-0.5 C 314.167,-0.5 356.833,-0.5 399.5,-0.5C 399.5,3.16667 399.5,6.83333 399.5,10.5C 396.833,10.5 394.167,10.5 391.5,10.5C 391.5,9.5 391.5,8.5 391.5,7.5C 388.833,7.5 386.167,7.5 383.5,7.5C 383.5,10.1667 383.5,12.8333 383.5,15.5C 381.833,15.5 380.167,15.5 378.5,15.5C 379.053,22.7795 375.719,26.2795 368.5,26C 367.594,27.6995 367.261,29.5328 367.5,31.5C 364.5,31.5 361.5,31.5 358.5,31.5C 358.5,26.8333 356.167,24.5 351.5,24.5C 351.5,21.5 351.5,18.5 351.5,15.5C 349.5,15.5 347.5,15.5 345.5,15.5C 345.5,20.8333 345.5,26.1667 345.5,31.5C 342.167,31.5 338.833,31.5 335.5,31.5C 335.5,29.5 335.5,27.5 335.5,25.5C 329.459,25.7474 323.459,25.4141 317.5,24.5C 314.029,25.2571 312.029,27.4237 311.5,31C 308.854,31.4974 306.187,31.6641 303.5,31.5C 303.5,33.5 303.5,35.5 303.5,37.5C 308.833,37.5 314.167,37.5 319.5,37.5C 319.5,35.5 319.5,33.5 319.5,31.5C 322.187,31.3359 324.854,31.5026 327.5,32C 328.242,36.5784 330.909,38.7451 335.5,38.5C 335.5,41.5 335.5,44.5 335.5,47.5C 328.5,47.5 321.5,47.5 314.5,47.5C 314.085,56.8459 309.752,59.8459 301.5,56.5C 298.029,57.2571 296.029,59.4237 295.5,63C 296.448,63.4828 297.448,63.6495 298.5,63.5C 299.053,70.7795 295.719,74.2795 288.5,74C 287.594,75.6995 287.261,77.5328 287.5,79.5C 282.167,79.5 276.833,79.5 271.5,79.5C 271.5,76.1667 271.5,72.8333 271.5,69.5C 276.833,69.5 282.167,69.5 287.5,69.5C 287.5,67.5 287.5,65.5 287.5,63.5C 282.167,63.5 276.833,63.5 271.5,63.5C 271.739,61.5328 271.406,59.6995 270.5,58C 263.281,58.2795 259.947,54.7795 260.5,47.5C 264.167,47.5 267.833,47.5 271.5,47.5C 271.5,44.5 271.5,41.5 271.5,38.5C 276.302,38.7018 278.969,36.3685 279.5,31.5C 278.969,26.6315 276.302,24.2982 271.5,24.5C 271.5,21.5 271.5,18.5 271.5,15.5C 273.833,15.5 276.167,15.5 278.5,15.5C 278.5,10.8333 276.167,8.5 271.5,8.5C 271.5,5.5 271.5,2.5 271.5,-0.5 Z"/></g>
<g><path style="opacity:1" fill="#082028" d="M 569.5,203.5 C 555.363,196.265 541.363,188.765 527.5,181C 522.743,180.19 518.076,180.524 513.5,182C 498.645,189.925 483.978,198.092 469.5,206.5C 469.489,204.983 468.823,203.816 467.5,203C 468.451,202.282 468.617,201.449 468,200.5C 466.491,199.91 464.991,199.244 463.5,198.5C 470.025,194.451 477.025,192.784 484.5,193.5C 485.222,186.99 485.889,180.49 486.5,174C 485.685,170.257 483.352,168.424 479.5,168.5C 479.5,165.5 479.5,162.5 479.5,159.5C 482.5,159.5 485.5,159.5 488.5,159.5C 488.5,164.167 490.833,166.5 495.5,166.5C 495.5,169.5 495.5,172.5 495.5,175.5C 500.179,175.334 504.845,175.501 509.5,176C 512.223,178.891 515.223,179.224 518.5,177C 517.027,176.29 516.36,175.124 516.5,173.5C 517.5,173.5 518.5,173.5 519.5,173.5C 519.5,171.5 519.5,169.5 519.5,167.5C 518.5,167.5 517.5,167.5 516.5,167.5C 516.5,164.833 516.5,162.167 516.5,159.5C 514.833,159.5 513.167,159.5 511.5,159.5C 511.665,163.182 511.499,166.848 511,170.5C 503.615,170.614 500.115,166.947 500.5,159.5C 498.833,159.5 497.167,159.5 495.5,159.5C 495.5,157.5 495.5,155.5 495.5,153.5C 489.907,153.193 484.407,153.527 479,154.5C 471.615,154.614 468.115,150.947 468.5,143.5C 472.167,143.5 475.833,143.5 479.5,143.5C 479.335,139.818 479.501,136.152 480,132.5C 487.385,132.386 490.885,136.053 490.5,143.5C 492.167,143.5 493.833,143.5 495.5,143.5C 495.335,139.818 495.501,136.152 496,132.5C 503.385,132.386 506.885,136.053 506.5,143.5C 508.167,143.5 509.833,143.5 511.5,143.5C 511.5,138.167 511.5,132.833 511.5,127.5C 500.833,127.5 490.167,127.5 479.5,127.5C 479.666,120.492 479.5,113.492 479,106.5C 471.615,106.614 468.115,102.947 468.5,95.5C 466.833,95.5 465.167,95.5 463.5,95.5C 463.335,91.8183 463.501,88.1516 464,84.5C 471.385,84.386 474.885,88.0527 474.5,95.5C 476.167,95.5 477.833,95.5 479.5,95.5C 479.5,87.1667 479.5,78.8333 479.5,70.5C 484.091,70.7451 486.758,68.5784 487.5,64C 486.884,59.2401 484.218,56.7401 479.5,56.5C 479.5,58.8333 479.5,61.1667 479.5,63.5C 475.833,63.5 472.167,63.5 468.5,63.5C 467.947,56.2205 471.281,52.7205 478.5,53C 479.406,51.3005 479.739,49.4672 479.5,47.5C 481.167,47.5 482.833,47.5 484.5,47.5C 484.115,40.0527 487.615,36.386 495,36.5C 500.407,37.4732 505.907,37.8066 511.5,37.5C 511.5,40.8333 511.5,44.1667 511.5,47.5C 503.833,47.5 496.167,47.5 488.5,47.5C 488.424,51.3521 490.257,53.6854 494,54.5C 499.785,53.5656 505.618,53.2323 511.5,53.5C 511.334,58.5111 511.501,63.5111 512,68.5C 515.018,69.0278 517.851,70.0278 520.5,71.5C 523.167,76.8333 523.167,82.1667 520.5,87.5C 518.118,89.0707 515.451,89.904 512.5,90C 511.594,91.6995 511.261,93.5328 511.5,95.5C 516.833,95.5 522.167,95.5 527.5,95.5C 527.5,92.1667 527.5,88.8333 527.5,85.5C 532.833,85.5 538.167,85.5 543.5,85.5C 543.5,83.5 543.5,81.5 543.5,79.5C 548.833,79.5 554.167,79.5 559.5,79.5C 559.5,82.8333 559.5,86.1667 559.5,89.5C 554.167,89.5 548.833,89.5 543.5,89.5C 543.5,91.5 543.5,93.5 543.5,95.5C 546.187,95.3359 548.854,95.5026 551.5,96C 552.242,100.578 554.909,102.745 559.5,102.5C 559.5,105.5 559.5,108.5 559.5,111.5C 561.167,111.5 562.833,111.5 564.5,111.5C 563.947,104.221 567.281,100.721 574.5,101C 575.406,99.3005 575.739,97.4672 575.5,95.5C 579.167,95.5 582.833,95.5 586.5,95.5C 587.053,102.779 583.719,106.279 576.5,106C 575.594,107.699 575.261,109.533 575.5,111.5C 573.833,111.5 572.167,111.5 570.5,111.5C 571.053,118.779 567.719,122.279 560.5,122C 559.594,123.699 559.261,125.533 559.5,127.5C 557.167,127.5 554.833,127.5 552.5,127.5C 552.5,132.167 554.833,134.5 559.5,134.5C 559.5,137.5 559.5,140.5 559.5,143.5C 556.5,143.5 553.5,143.5 550.5,143.5C 550.5,138.833 548.167,136.5 543.5,136.5C 543.5,141.833 543.5,147.167 543.5,152.5C 538.909,152.255 536.242,154.422 535.5,159C 532.854,159.497 530.187,159.664 527.5,159.5C 527.5,161.5 527.5,163.5 527.5,165.5C 538.167,165.5 548.833,165.5 559.5,165.5C 559.5,174.167 559.5,182.833 559.5,191.5C 560.833,191.5 562.167,191.5 563.5,191.5C 563.351,192.552 563.517,193.552 564,194.5C 564.741,193.359 565.575,193.359 566.5,194.5C 567.5,194.167 568.167,193.5 568.5,192.5C 567.311,191.571 565.978,191.238 564.5,191.5C 564.115,184.053 567.615,180.386 575,180.5C 575.667,185.5 575.667,190.5 575,195.5C 573.667,196.167 572.333,196.833 571,197.5C 570.685,199.586 570.185,201.586 569.5,203.5 Z"/></g>
<g><path style="opacity:1" fill="#082027" d="M -0.5,391.5 C -0.5,324.833 -0.5,258.167 -0.5,191.5C 2.16667,191.5 4.83333,191.5 7.5,191.5C 7.3335,180.828 7.50016,170.161 8,159.5C 8.43861,164.107 10.9386,166.44 15.5,166.5C 15.5,169.5 15.5,172.5 15.5,175.5C 19.1667,175.5 22.8333,175.5 26.5,175.5C 26.885,182.947 23.385,186.614 16,186.5C 15.3333,200.5 15.3333,214.5 16,228.5C 23.385,228.386 26.885,232.053 26.5,239.5C 22.8333,239.5 19.1667,239.5 15.5,239.5C 15.5,237.167 15.5,234.833 15.5,232.5C 11.6479,232.424 9.31457,234.257 8.5,238C 9.13478,243.798 9.46811,249.631 9.5,255.5C 9.47361,261.246 8.80695,266.746 7.5,272C 8.24219,276.578 10.9089,278.745 15.5,278.5C 15.3338,272.491 15.5005,266.491 16,260.5C 18.4607,261.218 20.9607,261.885 23.5,262.5C 25.026,264.751 26.026,267.251 26.5,270C 25.5656,275.785 25.2323,281.618 25.5,287.5C 22.1667,287.5 18.8333,287.5 15.5,287.5C 15.2606,289.467 15.5939,291.301 16.5,293C 23.7194,292.721 27.0528,296.221 26.5,303.5C 28.1667,303.5 29.8333,303.5 31.5,303.5C 31.3347,299.818 31.5014,296.152 32,292.5C 35.0179,293.028 37.8512,294.028 40.5,295.5C 41.2431,297.638 41.9097,299.804 42.5,302C 41.5656,307.785 41.2323,313.618 41.5,319.5C 43.5,319.5 45.5,319.5 47.5,319.5C 47.3347,315.818 47.5014,312.152 48,308.5C 51.0179,309.028 53.8512,310.028 56.5,311.5C 57.479,314.083 58.1457,316.749 58.5,319.5C 59.041,326.791 55.7077,330.291 48.5,330C 47.5939,331.699 47.2606,333.533 47.5,335.5C 44.8127,335.336 42.146,335.503 39.5,336C 40.0286,339.576 42.0286,341.743 45.5,342.5C 53.7521,339.154 58.0855,342.154 58.5,351.5C 54.8333,351.5 51.1667,351.5 47.5,351.5C 47.5,354.5 47.5,357.5 47.5,360.5C 42.9089,360.255 40.2422,362.422 39.5,367C 40.1157,371.76 42.7824,374.26 47.5,374.5C 47.5,372.167 47.5,369.833 47.5,367.5C 51.1667,367.5 54.8333,367.5 58.5,367.5C 59.0528,374.779 55.7194,378.279 48.5,378C 47.5939,379.699 47.2606,381.533 47.5,383.5C 45.8333,383.5 44.1667,383.5 42.5,383.5C 42.885,390.947 39.385,394.614 32,394.5C 31.6667,399.833 31.3333,405.167 31,410.5C 23.615,410.614 20.115,406.947 20.5,399.5C 18.8333,399.5 17.1667,399.5 15.5,399.5C 15.5,394.167 15.5,388.833 15.5,383.5C 12.8333,383.5 10.1667,383.5 7.5,383.5C 7.83333,389.167 5.16667,391.833 -0.5,391.5 Z"/></g>
<g><path style="opacity:1" fill="#0c2028" d="M 431.5,227.5 C 411.554,239.479 391.22,250.979 370.5,262C 362.524,267.924 359.691,275.757 362,285.5C 366.891,296.866 375.058,300.366 386.5,296C 431.569,270.803 476.569,245.636 521.5,220.5C 566.988,245.077 612.322,269.91 657.5,295C 669.901,301.2 679.068,298.033 685,285.5C 686.907,275.818 683.74,268.318 675.5,263C 664.934,256.554 654.267,250.387 643.5,244.5C 647.099,242.976 650.766,242.643 654.5,243.5C 655.755,249.965 658.755,250.965 663.5,246.5C 666.039,247.115 668.539,247.782 671,248.5C 671.497,246.19 671.663,243.857 671.5,241.5C 658.167,240.833 658.167,240.167 671.5,239.5C 671.5,228.833 671.5,218.167 671.5,207.5C 669.833,207.5 668.167,207.5 666.5,207.5C 666.885,214.947 663.385,218.614 656,218.5C 655.501,214.848 655.335,211.182 655.5,207.5C 657.833,207.5 660.167,207.5 662.5,207.5C 662.5,202.833 660.167,200.5 655.5,200.5C 655.5,197.5 655.5,194.5 655.5,191.5C 658.5,191.5 661.5,191.5 664.5,191.5C 664.5,196.167 666.833,198.5 671.5,198.5C 671.5,196.167 671.5,193.833 671.5,191.5C 676.833,191.5 682.167,191.5 687.5,191.5C 687.5,186.167 687.5,180.833 687.5,175.5C 689.167,175.5 690.833,175.5 692.5,175.5C 692.115,168.053 695.615,164.386 703,164.5C 703.499,168.152 703.665,171.818 703.5,175.5C 708.833,175.5 714.167,175.5 719.5,175.5C 719.5,186.167 719.5,196.833 719.5,207.5C 720.822,207.33 721.989,207.663 723,208.5C 724.618,205.709 725.785,202.709 726.5,199.5C 729.149,198.028 731.982,197.028 735,196.5C 735.499,200.152 735.665,203.818 735.5,207.5C 741.07,207.071 746.404,207.738 751.5,209.5C 751.334,205.154 751.501,200.821 752,196.5C 759.385,196.386 762.885,200.053 762.5,207.5C 764.167,207.5 765.833,207.5 767.5,207.5C 767.261,209.467 767.594,211.301 768.5,213C 775.719,212.721 779.053,216.221 778.5,223.5C 777.448,223.351 776.448,223.517 775.5,224C 776.242,228.578 778.909,230.745 783.5,230.5C 783.5,228.167 783.5,225.833 783.5,223.5C 787.167,223.5 790.833,223.5 794.5,223.5C 794.885,230.947 791.385,234.614 784,234.5C 783.5,241.492 783.334,248.492 783.5,255.5C 786.5,255.5 789.5,255.5 792.5,255.5C 792.5,260.167 794.833,262.5 799.5,262.5C 799.5,265.5 799.5,268.5 799.5,271.5C 796.5,271.5 793.5,271.5 790.5,271.5C 790.5,266.833 788.167,264.5 783.5,264.5C 783.83,270.868 783.496,277.202 782.5,283.5C 781.167,284.167 780.167,285.167 779.5,286.5C 782.428,287.484 785.428,287.817 788.5,287.5C 788.115,280.053 791.615,276.386 799,276.5C 799.499,280.152 799.665,283.818 799.5,287.5C 797.833,287.5 796.167,287.5 794.5,287.5C 795.053,294.779 791.719,298.279 784.5,298C 783.594,299.699 783.261,301.533 783.5,303.5C 778.167,303.5 772.833,303.5 767.5,303.5C 767.582,298.783 766.248,298.617 763.5,303C 759.514,303.499 755.514,303.666 751.5,303.5C 751.5,308.833 751.5,314.167 751.5,319.5C 753.167,319.5 754.833,319.5 756.5,319.5C 756.115,312.053 759.615,308.386 767,308.5C 767.499,312.152 767.665,315.818 767.5,319.5C 765.833,319.5 764.167,319.5 762.5,319.5C 763.053,326.779 759.719,330.279 752.5,330C 751.594,331.699 751.261,333.533 751.5,335.5C 755.5,335.5 759.5,335.5 763.5,335.5C 763.167,338.5 764.5,339.833 767.5,339.5C 767.5,348.833 767.5,358.167 767.5,367.5C 772.833,367.5 778.167,367.5 783.5,367.5C 783.5,383.5 783.5,399.5 783.5,415.5C 784.822,415.33 785.989,415.663 787,416.5C 788.618,413.709 789.785,410.709 790.5,407.5C 793.149,406.028 795.982,405.028 799,404.5C 801.026,416.46 796.192,421.96 784.5,421C 782.081,421.29 780.747,422.124 780.5,423.5C 771.751,429.023 769.251,436.69 773,446.5C 777.395,454.103 783.895,456.603 792.5,454C 800.824,451.199 804.491,445.366 803.5,436.5C 804.199,438.556 805.199,440.556 806.5,442.5C 807.76,440.647 807.76,438.814 806.5,437C 806.833,436.833 807.167,436.667 807.5,436.5C 808.48,437.981 809.647,439.315 811,440.5C 811.7,438.968 812.866,437.968 814.5,437.5C 815.466,435.604 815.799,433.604 815.5,431.5C 819.167,431.5 822.833,431.5 826.5,431.5C 827.053,438.779 823.719,442.279 816.5,442C 815.167,445.667 815.167,449.333 816.5,453C 823.719,452.721 827.053,456.221 826.5,463.5C 822.833,463.5 819.167,463.5 815.5,463.5C 815.5,462.167 815.5,460.833 815.5,459.5C 812.939,459.447 810.939,460.447 809.5,462.5C 801.485,464.04 793.651,463.707 786,461.5C 779.971,463.274 773.805,463.941 767.5,463.5C 767.5,468.833 767.5,474.167 767.5,479.5C 762.167,479.5 756.833,479.5 751.5,479.5C 751.5,482.167 751.5,484.833 751.5,487.5C 746.167,487.5 740.833,487.5 735.5,487.5C 735.5,463.5 735.5,439.5 735.5,415.5C 738.167,415.5 740.833,415.5 743.5,415.5C 743.5,404.833 743.5,394.167 743.5,383.5C 740.833,383.5 738.167,383.5 735.5,383.5C 735.667,361.164 735.5,338.831 735,316.5C 734.667,315.833 734.333,315.167 734,314.5C 733.601,314.728 733.435,315.062 733.5,315.5C 726.69,304.258 717.357,301.425 705.5,307C 702.727,309.383 700.561,312.217 699,315.5C 698.333,380.167 698.333,444.833 699,509.5C 706.987,525.749 717.654,527.749 731,515.5C 731.942,512.626 733.109,509.96 734.5,507.5C 735.492,510.779 735.659,514.112 735,517.5C 734.577,516.044 733.744,515.544 732.5,516C 732.738,518.562 731.738,520.896 729.5,523C 726.302,523.848 723.469,525.348 721,527.5C 719.759,525.579 718.259,525.246 716.5,526.5C 717.325,527.386 718.325,527.719 719.5,527.5C 719.5,532.833 719.5,538.167 719.5,543.5C 725.195,544.281 725.528,545.447 720.5,547C 719.167,547.667 719.167,548.333 720.5,549C 723.482,549.498 726.482,549.665 729.5,549.5C 729.5,548.167 729.5,546.833 729.5,545.5C 733.449,545.307 733.449,544.807 729.5,544C 731.167,543.833 732.833,543.667 734.5,543.5C 738.194,543.579 741.527,544.579 744.5,546.5C 748.866,546.134 753.366,546.134 758,546.5C 760.304,546.682 760.804,546.016 759.5,544.5C 767.472,543.502 775.472,543.169 783.5,543.5C 783.5,548.833 783.5,554.167 783.5,559.5C 788.833,559.5 794.167,559.5 799.5,559.5C 799.5,564.833 799.5,570.167 799.5,575.5C 794.167,575.5 788.833,575.5 783.5,575.5C 783.5,591.5 783.5,607.5 783.5,623.5C 780.833,623.5 778.167,623.5 775.5,623.5C 775.5,622.167 775.5,620.833 775.5,619.5C 772.5,619.167 771.167,620.5 771.5,623.5C 764.833,623.5 758.167,623.5 751.5,623.5C 751.5,622.5 751.5,621.5 751.5,620.5C 749.158,620.504 747.158,621.337 745.5,623C 738.5,623.667 731.5,623.667 724.5,623C 722.109,622.309 722.109,621.309 724.5,620C 723.1,618.562 721.433,617.729 719.5,617.5C 719.66,630.013 719.66,642.68 719.5,655.5C 722.167,655.5 724.833,655.5 727.5,655.5C 727.5,658.167 727.5,660.833 727.5,663.5C 728.833,663.5 730.167,663.5 731.5,663.5C 731.5,660.833 731.5,658.167 731.5,655.5C 732.833,655.5 734.167,655.5 735.5,655.5C 735.5,658.167 735.5,660.833 735.5,663.5C 746.167,663.5 756.833,663.5 767.5,663.5C 767.5,666.167 767.5,668.833 767.5,671.5C 778.167,671.5 788.833,671.5 799.5,671.5C 799.5,676.833 799.5,682.167 799.5,687.5C 794.167,687.5 788.833,687.5 783.5,687.5C 783.5,692.833 783.5,698.167 783.5,703.5C 788.833,703.5 794.167,703.5 799.5,703.5C 799.5,708.833 799.5,714.167 799.5,719.5C 803.167,719.5 806.833,719.5 810.5,719.5C 811.053,726.779 807.719,730.279 800.5,730C 799.594,731.699 799.261,733.533 799.5,735.5C 794.167,735.5 788.833,735.5 783.5,735.5C 783.261,737.467 783.594,739.301 784.5,741C 791.719,740.721 795.053,744.221 794.5,751.5C 789.167,751.5 783.833,751.5 778.5,751.5C 779.053,758.779 775.719,762.279 768.5,762C 767.89,763.947 767.057,765.781 766,767.5C 766.864,763.893 765.531,761.227 762,759.5C 761.802,757.618 761.302,755.952 760.5,754.5C 756.909,746.794 750.909,743.96 742.5,746C 740.667,747.833 738.833,749.667 737,751.5C 731.364,760.635 725.53,769.635 719.5,778.5C 712.782,767.563 705.449,757.063 697.5,747C 690.471,743.963 684.638,745.463 680,751.5C 678.578,754.03 678.245,756.697 679,759.5C 687.544,774.702 696.877,789.369 707,803.5C 707.215,813.546 707.715,823.546 708.5,833.5C 706.696,826.568 705.863,819.235 706,811.5C 705.333,812.833 704.667,812.833 704,811.5C 703.51,810.207 703.343,808.873 703.5,807.5C 700.833,807.5 698.167,807.5 695.5,807.5C 695.5,810.167 695.5,812.833 695.5,815.5C 688.833,815.5 682.167,815.5 675.5,815.5C 675.833,812.5 674.5,811.167 671.5,811.5C 671.5,812.833 671.5,814.167 671.5,815.5C 663.005,815.394 654.672,815.394 646.5,815.5C 642.74,813.382 638.907,813.382 635,815.5C 629.887,814.369 624.72,814.369 619.5,815.5C 618.988,820.585 619.655,825.419 621.5,830C 620.528,832.111 619.695,834.278 619,836.5C 618.59,835.099 618.09,833.766 617.5,832.5C 617.5,831.5 617.5,830.5 617.5,829.5C 618.489,824.025 618.822,818.358 618.5,812.5C 625.022,812.823 631.355,812.49 637.5,811.5C 656.464,809.033 666.131,798.199 666.5,779C 665.166,760.661 655.5,749.661 637.5,746C 624.738,745.04 612.071,745.373 599.5,747C 596.894,748.938 595.061,751.438 594,754.5C 593.5,765.828 593.333,777.162 593.5,788.5C 592.732,789.263 592.232,790.263 592,791.5C 591.5,799.493 591.334,807.493 591.5,815.5C 588.833,815.5 586.167,815.5 583.5,815.5C 582.991,804.853 582.158,804.853 581,815.5C 580.17,810.192 579.67,804.859 579.5,799.5C 580.833,799.5 582.167,799.5 583.5,799.5C 583.5,794.167 583.5,788.833 583.5,783.5C 580.833,783.5 578.167,783.5 575.5,783.5C 575.666,774.161 575.5,764.827 575,755.5C 574.617,754.944 574.117,754.611 573.5,754.5C 568.978,745.559 561.978,743.059 552.5,747C 542.993,759.335 533.326,771.502 523.5,783.5C 514.298,771.615 504.965,759.781 495.5,748C 487.5,742.476 480.667,743.642 475,751.5C 473.85,765.076 473.35,778.743 473.5,792.5C 473.667,805.5 473.833,818.5 474,831.5C 477.601,840.215 483.768,842.715 492.5,839C 493.667,837.833 494.833,836.667 496,835.5C 497.193,820.905 498.193,806.238 499,791.5C 505.333,799.995 511.833,808.329 518.5,816.5C 517.665,817.036 517.665,817.869 518.5,819C 514.251,823.344 514.751,824.177 520,821.5C 521.261,821.759 522.261,822.426 523,823.5C 523.497,826.146 523.664,828.813 523.5,831.5C 517.5,831.5 511.5,831.5 505.5,831.5C 505.5,834.167 505.5,836.833 505.5,839.5C 507.5,839.833 509.5,840.167 511.5,840.5C 511.5,848.167 511.5,855.833 511.5,863.5C 519.5,863.5 527.5,863.5 535.5,863.5C 535.5,866.167 535.5,868.833 535.5,871.5C 538.167,871.5 540.833,871.5 543.5,871.5C 541.833,878.5 544.5,881.167 551.5,879.5C 551.5,884.833 551.5,890.167 551.5,895.5C 543.5,895.5 535.5,895.5 527.5,895.5C 527.5,898.167 527.5,900.833 527.5,903.5C 522.167,903.5 516.833,903.5 511.5,903.5C 511.5,906.167 511.5,908.833 511.5,911.5C 500.833,911.5 490.167,911.5 479.5,911.5C 479.5,908.833 479.5,906.167 479.5,903.5C 474.167,903.5 468.833,903.5 463.5,903.5C 463.5,906.167 463.5,908.833 463.5,911.5C 452.833,911.5 442.167,911.5 431.5,911.5C 431.5,906.167 431.5,900.833 431.5,895.5C 423.5,895.5 415.5,895.5 407.5,895.5C 407.5,884.833 407.5,874.167 407.5,863.5C 410.167,863.5 412.833,863.5 415.5,863.5C 415.5,860.833 415.5,858.167 415.5,855.5C 420.833,855.5 426.167,855.5 431.5,855.5C 431.5,851.833 431.5,848.167 431.5,844.5C 433.833,844.5 436.167,844.5 438.5,844.5C 438.769,842.571 438.269,840.905 437,839.5C 435.301,840.406 433.467,840.739 431.5,840.5C 432.407,836.876 432.074,833.209 430.5,829.5C 430.167,830.167 429.833,830.833 429.5,831.5C 428.169,830.834 426.669,830.834 425,831.5C 423.774,831.355 422.607,831.022 421.5,830.5C 420.289,829.726 420.289,828.893 421.5,828C 418.946,827.442 416.946,828.275 415.5,830.5C 410.208,831.495 404.875,831.828 399.5,831.5C 399.665,834.85 399.498,838.183 399,841.5C 397.638,838.764 395.804,836.431 393.5,834.5C 392.102,836.797 390.436,838.963 388.5,841C 390.886,841.284 391.552,842.284 390.5,844C 391.5,845 392.5,846 393.5,847C 385.167,847.667 376.833,847.667 368.5,847C 375.979,844.846 375.646,844.013 367.5,844.5C 367.5,845.5 367.5,846.5 367.5,847.5C 364.833,847.5 362.167,847.5 359.5,847.5C 359.695,843.453 359.362,839.453 358.5,835.5C 358.667,834.833 358.833,834.167 359,833.5C 359.333,834.5 359.667,835.5 360,836.5C 360.402,835.128 360.902,833.795 361.5,832.5C 360.675,831.614 359.675,831.281 358.5,831.5C 358.821,828.12 357.821,827.287 355.5,829C 357.301,829.317 357.634,829.984 356.5,831C 354.866,831.494 353.199,831.66 351.5,831.5C 358.948,823.139 357.948,815.972 348.5,810C 345.833,809.333 343.167,809.333 340.5,810C 325.401,819.577 313.234,816.744 304,801.5C 299.215,783.043 306.048,772.043 324.5,768.5C 326.5,768.667 328.5,768.833 330.5,769C 335.003,771.007 339.503,772.841 344,774.5C 353.072,774.099 357.072,769.432 356,760.5C 352.365,754.579 347.198,750.412 340.5,748C 320.4,741.255 303.234,745.755 289,761.5C 274.42,783.026 275.087,804.026 291,824.5C 309.094,841.716 328.928,844.049 350.5,831.5C 350.272,835.717 351.939,838.717 355.5,840.5C 352.976,840.898 350.476,841.232 348,841.5C 347.333,842.167 347.333,842.833 348,843.5C 349.487,844.155 350.653,845.155 351.5,846.5C 346.278,848.046 341.278,847.713 336.5,845.5C 335.504,851.463 335.171,857.463 335.5,863.5C 319.5,863.5 303.5,863.5 287.5,863.5C 287.5,856.833 287.5,850.167 287.5,843.5C 284.5,843.167 283.167,844.5 283.5,847.5C 279.5,847.5 275.5,847.5 271.5,847.5C 271.5,842.167 271.5,836.833 271.5,831.5C 270.167,831.5 268.833,831.5 267.5,831.5C 267.5,826.167 267.5,820.833 267.5,815.5C 266.167,815.5 264.833,815.5 263.5,815.5C 263.5,814.167 263.5,812.833 263.5,811.5C 260.833,811.5 258.167,811.5 255.5,811.5C 255.5,807.5 255.5,803.5 255.5,799.5C 254.167,799.5 252.833,799.5 251.5,799.5C 251.5,786.167 251.5,772.833 251.5,759.5C 252.833,759.5 254.167,759.5 255.5,759.5C 255.5,730.167 255.5,700.833 255.5,671.5C 244.833,671.5 234.167,671.5 223.5,671.5C 223.5,655.5 223.5,639.5 223.5,623.5C 218.167,623.5 212.833,623.5 207.5,623.5C 207.5,591.5 207.5,559.5 207.5,527.5C 202.167,527.5 196.833,527.5 191.5,527.5C 191.5,522.167 191.5,516.833 191.5,511.5C 186.167,511.5 180.833,511.5 175.5,511.5C 175.5,506.167 175.5,500.833 175.5,495.5C 180.833,495.5 186.167,495.5 191.5,495.5C 191.5,479.5 191.5,463.5 191.5,447.5C 194.167,447.5 196.833,447.5 199.5,447.5C 199.5,443.5 199.5,439.5 199.5,435.5C 202.167,435.5 204.833,435.5 207.5,435.5C 207.5,418.167 207.5,400.833 207.5,383.5C 218.167,383.5 228.833,383.5 239.5,383.5C 239.5,378.167 239.5,372.833 239.5,367.5C 244.833,367.5 250.167,367.5 255.5,367.5C 255.5,351.5 255.5,335.5 255.5,319.5C 258.167,319.5 260.833,319.5 263.5,319.5C 263.5,298.167 263.5,276.833 263.5,255.5C 260.833,255.5 258.167,255.5 255.5,255.5C 255.5,250.167 255.5,244.833 255.5,239.5C 258.167,239.5 260.833,239.5 263.5,239.5C 263.5,234.167 263.5,228.833 263.5,223.5C 267.514,223.666 271.514,223.499 275.5,223C 274.421,222.044 273.255,221.211 272,220.5C 271.501,216.179 271.334,211.846 271.5,207.5C 273.167,207.5 274.833,207.5 276.5,207.5C 276.115,200.053 279.615,196.386 287,196.5C 286.962,201.142 287.962,205.475 290,209.5C 292.365,206.577 293.865,203.244 294.5,199.5C 297.149,198.028 299.982,197.028 303,196.5C 303.106,202.313 303.272,207.98 303.5,213.5C 304.791,213.263 305.791,213.596 306.5,214.5C 287.657,220.844 280.157,233.844 284,253.5C 293.044,273.413 307.878,279.246 328.5,271C 341.299,261.555 345.799,249.055 342,233.5C 336.932,222.391 328.432,215.724 316.5,213.5C 317.239,213.631 317.906,213.464 318.5,213C 316.167,212.667 313.833,212.333 311.5,212C 312.993,210.844 312.826,210.01 311,209.5C 310.127,209.735 309.293,210.069 308.5,210.5C 307.304,210.154 307.304,209.654 308.5,209C 307.262,209.077 306.262,208.911 305.5,208.5C 308.904,208.818 312.07,208.484 315,207.5C 317.52,209.748 319.02,208.915 319.5,205C 319.415,203.893 319.081,202.893 318.5,202C 311.281,202.279 307.947,198.779 308.5,191.5C 306.833,191.5 305.167,191.5 303.5,191.5C 303.335,187.818 303.501,184.152 304,180.5C 311.385,180.386 314.885,184.053 314.5,191.5C 316.167,191.5 317.833,191.5 319.5,191.5C 319.335,187.818 319.501,184.152 320,180.5C 323.018,181.028 325.851,182.028 328.5,183.5C 329.243,185.638 329.91,187.804 330.5,190C 329.566,195.785 329.232,201.618 329.5,207.5C 331.5,207.5 333.5,207.5 335.5,207.5C 335.5,196.833 335.5,186.167 335.5,175.5C 337.167,175.5 338.833,175.5 340.5,175.5C 339.947,168.221 343.281,164.721 350.5,165C 351.406,163.301 351.739,161.467 351.5,159.5C 355.167,159.5 358.833,159.5 362.5,159.5C 363.053,166.779 359.719,170.279 352.5,170C 351.594,171.699 351.261,173.533 351.5,175.5C 349.5,175.5 347.5,175.5 345.5,175.5C 345.5,186.167 345.5,196.833 345.5,207.5C 347.5,207.5 349.5,207.5 351.5,207.5C 351.261,209.467 351.594,211.301 352.5,213C 359.719,212.721 363.053,216.221 362.5,223.5C 364.167,223.5 365.833,223.5 367.5,223.5C 367.5,226.5 367.5,229.5 367.5,232.5C 362.909,232.255 360.242,234.422 359.5,239C 367.493,239.5 375.493,239.666 383.5,239.5C 383.5,236.833 383.5,234.167 383.5,231.5C 391.518,231.61 399.518,231.277 407.5,230.5C 409.964,230.59 412.13,231.257 414,232.5C 415.294,226.003 415.961,219.336 416,212.5C 419.018,213.028 421.851,214.028 424.5,215.5C 426.677,218.923 426.51,221.923 424,224.5C 423.586,224.043 423.086,223.709 422.5,223.5C 421.167,224.167 421.167,224.833 422.5,225.5C 424.371,226.767 426.204,226.767 428,225.5C 429.113,226.305 430.279,226.972 431.5,227.5 Z"/></g>
<g><path style="opacity:1" fill="#082028" d="M 1023.5,212.5 C 1023.5,216.167 1023.5,219.833 1023.5,223.5C 1021.83,223.5 1020.17,223.5 1018.5,223.5C 1019.05,230.779 1015.72,234.279 1008.5,234C 1007.59,235.699 1007.26,237.533 1007.5,239.5C 1005.83,239.5 1004.17,239.5 1002.5,239.5C 1003.05,246.779 999.719,250.279 992.5,250C 991.594,251.699 991.261,253.533 991.5,255.5C 988.813,255.336 986.146,255.503 983.5,256C 984.029,259.576 986.029,261.743 989.5,262.5C 997.752,259.154 1002.09,262.154 1002.5,271.5C 996.5,271.5 990.5,271.5 984.5,271.5C 984.5,276.167 986.833,278.5 991.5,278.5C 991.5,281.5 991.5,284.5 991.5,287.5C 988.5,287.5 985.5,287.5 982.5,287.5C 982.5,282.833 980.167,280.5 975.5,280.5C 975.5,282.833 975.5,285.167 975.5,287.5C 973.833,287.5 972.167,287.5 970.5,287.5C 970.885,294.947 967.385,298.614 960,298.5C 959.501,294.848 959.335,291.182 959.5,287.5C 955.833,287.5 952.167,287.5 948.5,287.5C 948.115,280.053 951.615,276.386 959,276.5C 959.5,269.508 959.666,262.508 959.5,255.5C 955.833,255.5 952.167,255.5 948.5,255.5C 948.115,248.053 951.615,244.386 959,244.5C 959.499,240.514 959.666,236.514 959.5,232.5C 954.909,232.255 952.242,234.422 951.5,239C 946.845,239.499 942.179,239.666 937.5,239.5C 937.5,244.833 937.5,250.167 937.5,255.5C 928.833,255.5 920.167,255.5 911.5,255.5C 911.5,253.167 911.5,250.833 911.5,248.5C 906.909,248.255 904.242,250.422 903.5,255C 899.179,255.499 894.846,255.666 890.5,255.5C 890.885,262.947 887.385,266.614 880,266.5C 879.501,262.848 879.335,259.182 879.5,255.5C 881.167,255.5 882.833,255.5 884.5,255.5C 883.947,248.221 887.281,244.721 894.5,245C 895.406,243.301 895.739,241.467 895.5,239.5C 890.167,239.5 884.833,239.5 879.5,239.5C 879.5,234.167 879.5,228.833 879.5,223.5C 882.187,223.336 884.854,223.503 887.5,224C 888.242,228.578 890.909,230.745 895.5,230.5C 895.5,226.167 895.5,221.833 895.5,217.5C 889.618,217.768 883.785,217.434 878,216.5C 874.257,217.315 872.424,219.648 872.5,223.5C 869.5,223.5 866.5,223.5 863.5,223.5C 863.5,220.5 863.5,217.5 863.5,214.5C 869.524,213.937 871.191,211.103 868.5,206C 869.09,203.804 869.757,201.638 870.5,199.5C 873.149,198.028 875.982,197.028 879,196.5C 879.499,192.514 879.666,188.514 879.5,184.5C 874.833,184.5 872.5,186.833 872.5,191.5C 869.5,191.5 866.5,191.5 863.5,191.5C 863.5,188.5 863.5,185.5 863.5,182.5C 868.167,182.5 870.5,180.167 870.5,175.5C 873.5,175.5 876.5,175.5 879.5,175.5C 879.261,177.467 879.594,179.301 880.5,181C 886.989,180.489 890.323,183.489 890.5,190C 887.809,195.103 889.476,197.937 895.5,198.5C 895.5,190.833 895.5,183.167 895.5,175.5C 898.187,175.336 900.854,175.503 903.5,176C 904.242,180.578 906.909,182.745 911.5,182.5C 911.334,176.491 911.501,170.491 912,164.5C 914.461,165.218 916.961,165.885 919.5,166.5C 921.026,168.751 922.026,171.251 922.5,174C 921.566,179.785 921.232,185.618 921.5,191.5C 923.5,191.5 925.5,191.5 927.5,191.5C 927.335,187.818 927.501,184.152 928,180.5C 935.385,180.386 938.885,184.053 938.5,191.5C 937.448,191.351 936.448,191.517 935.5,192C 936.029,195.576 938.029,197.743 941.5,198.5C 949.752,195.154 954.085,198.154 954.5,207.5C 953.448,207.351 952.448,207.517 951.5,208C 952.242,212.578 954.909,214.745 959.5,214.5C 959.334,219.179 959.501,223.845 960,228.5C 967.385,228.386 970.885,232.053 970.5,239.5C 969.448,239.351 968.448,239.517 967.5,240C 968.242,244.578 970.909,246.745 975.5,246.5C 975.5,241.167 975.5,235.833 975.5,230.5C 980.167,230.5 982.5,228.167 982.5,223.5C 985.5,223.5 988.5,223.5 991.5,223.5C 991.5,226.5 991.5,229.5 991.5,232.5C 986.782,232.74 984.116,235.24 983.5,240C 984.242,244.578 986.909,246.745 991.5,246.5C 991.5,244.167 991.5,241.833 991.5,239.5C 993.167,239.5 994.833,239.5 996.5,239.5C 995.947,232.221 999.281,228.721 1006.5,229C 1007.41,227.301 1007.74,225.467 1007.5,223.5C 1009.17,223.5 1010.83,223.5 1012.5,223.5C 1012.19,215.809 1015.86,212.142 1023.5,212.5 Z"/></g>
<g><path style="opacity:1" fill="#fbfcfc" d="M 569.5,203.5 C 594.132,217.151 618.798,230.818 643.5,244.5C 654.267,250.387 664.934,256.554 675.5,263C 683.74,268.318 686.907,275.818 685,285.5C 679.068,298.033 669.901,301.2 657.5,295C 612.322,269.91 566.988,245.077 521.5,220.5C 476.569,245.636 431.569,270.803 386.5,296C 375.058,300.366 366.891,296.866 362,285.5C 359.691,275.757 362.524,267.924 370.5,262C 391.22,250.979 411.554,239.479 431.5,227.5C 444.167,220.5 456.833,213.5 469.5,206.5C 483.978,198.092 498.645,189.925 513.5,182C 518.076,180.524 522.743,180.19 527.5,181C 541.363,188.765 555.363,196.265 569.5,203.5 Z"/></g>
<g><path style="opacity:1" fill="#fbfcfc" d="M 316.5,213.5 C 328.432,215.724 336.932,222.391 342,233.5C 345.799,249.055 341.299,261.555 328.5,271C 307.878,279.246 293.044,273.413 284,253.5C 280.157,233.844 287.657,220.844 306.5,214.5C 309.728,213.586 313.061,213.253 316.5,213.5 Z"/></g>
<g><path style="opacity:1" fill="#fafbfb" d="M 727.5,213.5 C 751.362,213.198 763.529,224.865 764,248.5C 759.113,268.037 746.613,276.537 726.5,274C 705.144,265.781 698.644,250.948 707,229.5C 711.963,221.696 718.796,216.363 727.5,213.5 Z"/></g>
<g><path style="opacity:1" fill="#fcfcfc" d="M 517.5,277.5 C 527.564,276.949 535.73,280.615 542,288.5C 578.918,348.667 615.585,409 652,469.5C 653.802,478.732 650.969,486.232 643.5,492C 609.673,510.079 576.007,528.413 542.5,547C 532.817,553.788 522.484,555.121 511.5,551C 475.61,531.892 439.944,512.558 404.5,493C 395.905,486.884 393.072,478.717 396,468.5C 397.667,465.167 399.333,461.833 401,458.5C 434.731,403.763 468.064,348.763 501,293.5C 504.992,286.423 510.492,281.09 517.5,277.5 Z"/></g>
<g><path style="opacity:1" fill="#fafbfa" d="M 325.5,303.5 C 336.202,302.341 343.702,306.674 348,316.5C 348.667,380.5 348.667,444.5 348,508.5C 343.56,521.97 334.727,526.136 321.5,521C 317,517.171 314.167,512.338 313,506.5C 312.333,443.833 312.333,381.167 313,318.5C 315.211,311.796 319.378,306.796 325.5,303.5 Z"/></g>
<g><path style="opacity:1" fill="#fbfcfb" d="M 733.5,315.5 C 734.493,379.459 734.826,443.459 734.5,507.5C 733.109,509.96 731.942,512.626 731,515.5C 717.654,527.749 706.987,525.749 699,509.5C 698.333,444.833 698.333,380.167 699,315.5C 700.561,312.217 702.727,309.383 705.5,307C 717.357,301.425 726.69,304.258 733.5,315.5 Z"/></g>
<g><path style="opacity:1" fill="#0d2027" d="M 522.5,331.5 C 523.496,331.414 524.329,331.748 525,332.5C 552.167,377.5 579.333,422.5 606.5,467.5C 578.927,483.205 551.093,498.539 523,513.5C 495.262,498.38 467.429,483.38 439.5,468.5C 467.429,422.972 495.096,377.305 522.5,331.5 Z"/></g>
<g><path style="opacity:1" fill="#f7f9f9" d="M 393.5,362.5 C 408.552,361.715 415.052,368.715 413,383.5C 408.635,392.633 401.469,395.8 391.5,393C 383.63,387.723 381.13,380.556 384,371.5C 386.406,367.592 389.572,364.592 393.5,362.5 Z"/></g>
<g><path style="opacity:1" fill="#f8fafa" d="M 645.5,362.5 C 662.606,364.716 667.773,373.716 661,389.5C 650.213,397.293 641.213,395.627 634,384.5C 631.28,373.602 635.113,366.269 645.5,362.5 Z"/></g>
<g><path style="opacity:1" fill="#fafbfc" d="M 518.5,405.5 C 531.956,404.641 541.456,410.308 547,422.5C 549.799,436.797 544.632,446.963 531.5,453C 515.465,455.909 504.965,449.743 500,434.5C 498.62,419.909 504.787,410.242 518.5,405.5 Z"/></g>
<g><path style="opacity:1" fill="#072027" d="M -0.5,408.5 C 5.5,407.167 7.83333,409.5 6.5,415.5C 7.5,415.5 8.5,415.5 9.5,415.5C 9.66652,442.176 9.33318,468.842 8.5,495.5C 11.3245,495.081 13.4912,496.081 15,498.5C 15.6667,507.167 15.6667,515.833 15,524.5C 13.7365,526.607 11.9032,527.607 9.5,527.5C 9.5,538.167 9.5,548.833 9.5,559.5C 11.5,559.5 13.5,559.5 15.5,559.5C 15.3333,598.501 15.5,637.501 16,676.5C 23.385,676.386 26.885,680.053 26.5,687.5C 22.8333,687.5 19.1667,687.5 15.5,687.5C 15.3337,694.508 15.5004,701.508 16,708.5C 23.385,708.386 26.885,712.053 26.5,719.5C 20.8333,719.5 15.1667,719.5 9.5,719.5C 9.5,724.833 9.5,730.167 9.5,735.5C 6.16667,735.5 2.83333,735.5 -0.5,735.5C -0.5,626.5 -0.5,517.5 -0.5,408.5 Z"/></g>
<g><path style="opacity:1" fill="#f8fafa" d="M 803.5,436.5 C 804.491,445.366 800.824,451.199 792.5,454C 783.895,456.603 777.395,454.103 773,446.5C 769.251,436.69 771.751,429.023 780.5,423.5C 792.309,420.663 799.976,424.997 803.5,436.5 Z"/></g>
<g><path style="opacity:1" fill="#f8fafa" d="M 255.5,422.5 C 273.055,423.277 278.889,431.944 273,448.5C 267.681,454.167 261.181,456.001 253.5,454C 244.371,448.904 241.538,441.404 245,431.5C 248.103,427.886 251.603,424.886 255.5,422.5 Z"/></g>
<g><path style="opacity:1" fill="#fbfcfc" d="M 373.5,535.5 C 379.306,535.268 384.639,536.768 389.5,540C 433.936,564.634 478.436,589.134 523,613.5C 569.705,587.561 616.539,561.728 663.5,536C 680.375,534.877 687.542,542.711 685,559.5C 682.635,565.202 678.801,569.702 673.5,573C 625.296,599.935 576.962,626.601 528.5,653C 524.5,653.667 520.5,653.667 516.5,653C 467.579,626.401 418.912,599.401 370.5,572C 360.813,563.269 358.979,553.102 365,541.5C 367.736,539.248 370.569,537.248 373.5,535.5 Z"/></g>
<g><path style="opacity:1" fill="#fbfcfc" d="M 727.5,550.5 C 752.493,549.66 764.66,561.66 764,586.5C 755.954,608.937 740.788,615.77 718.5,607C 703.292,594.924 700.458,580.424 710,563.5C 714.581,557.41 720.415,553.077 727.5,550.5 Z"/></g>
<g><path style="opacity:1" fill="#fafbfb" d="M 305.5,550.5 C 331.048,549.88 343.214,562.213 342,587.5C 336.732,604.429 325.232,612.262 307.5,611C 290.029,605.551 281.862,593.717 283,575.5C 285.81,562.861 293.31,554.527 305.5,550.5 Z"/></g>
<g><path style="opacity:1" fill="#082027" d="M 910.5,564.5 C 911.482,567.962 911.815,571.629 911.5,575.5C 909.833,575.5 908.167,575.5 906.5,575.5C 907.053,582.779 903.719,586.279 896.5,586C 895.594,587.699 895.261,589.533 895.5,591.5C 900.833,591.5 906.167,591.5 911.5,591.5C 911.261,593.467 911.594,595.301 912.5,597C 919.719,596.721 923.053,600.221 922.5,607.5C 918.833,607.5 915.167,607.5 911.5,607.5C 911.261,609.467 911.594,611.301 912.5,613C 919.719,612.721 923.053,616.221 922.5,623.5C 924.167,623.5 925.833,623.5 927.5,623.5C 927.5,628.833 927.5,634.167 927.5,639.5C 925.167,639.5 922.833,639.5 920.5,639.5C 920.5,644.167 922.833,646.5 927.5,646.5C 927.5,652.5 927.5,658.5 927.5,664.5C 922.909,664.255 920.242,666.422 919.5,671C 920.448,671.483 921.448,671.649 922.5,671.5C 922.885,678.947 919.385,682.614 912,682.5C 911.5,689.492 911.334,696.492 911.5,703.5C 909.833,703.5 908.167,703.5 906.5,703.5C 906.085,712.846 901.752,715.846 893.5,712.5C 890.029,713.257 888.029,715.424 887.5,719C 884.854,719.497 882.187,719.664 879.5,719.5C 879.665,723.182 879.499,726.848 879,730.5C 876.931,729.736 874.764,729.236 872.5,729C 870.135,726.939 868.801,724.272 868.5,721C 871.191,715.897 869.524,713.063 863.5,712.5C 863.5,709.5 863.5,706.5 863.5,703.5C 860.813,703.664 858.146,703.497 855.5,703C 854.971,699.424 852.971,697.257 849.5,696.5C 841.248,699.846 836.915,696.846 836.5,687.5C 837.5,687.5 838.5,687.5 839.5,687.5C 839.575,684.794 839.908,682.127 840.5,679.5C 842.833,679.5 845.167,679.5 847.5,679.5C 847.5,682.167 847.5,684.833 847.5,687.5C 852.833,687.5 858.167,687.5 863.5,687.5C 863.5,684.833 863.5,682.167 863.5,679.5C 857.833,679.833 855.167,677.167 855.5,671.5C 854.5,671.5 853.5,671.5 852.5,671.5C 851.947,664.221 855.281,660.721 862.5,661C 863.406,659.301 863.739,657.467 863.5,655.5C 868.833,655.5 874.167,655.5 879.5,655.5C 879.5,653.167 879.5,650.833 879.5,648.5C 884.833,648.5 890.167,648.5 895.5,648.5C 895.5,645.5 895.5,642.5 895.5,639.5C 887.833,639.5 880.167,639.5 872.5,639.5C 872.244,637.208 872.577,635.041 873.5,633C 880.826,632.5 888.159,632.334 895.5,632.5C 895.5,629.5 895.5,626.5 895.5,623.5C 887.493,623.666 879.493,623.5 871.5,623C 870.758,618.422 868.091,616.255 863.5,616.5C 863.5,618.833 863.5,621.167 863.5,623.5C 859.833,623.5 856.167,623.5 852.5,623.5C 851.947,616.221 855.281,612.721 862.5,613C 863.406,611.301 863.739,609.467 863.5,607.5C 865.833,607.5 868.167,607.5 870.5,607.5C 870.5,602.833 868.167,600.5 863.5,600.5C 863.5,597.5 863.5,594.5 863.5,591.5C 866.5,591.5 869.5,591.5 872.5,591.5C 872.5,596.167 874.833,598.5 879.5,598.5C 879.5,592.833 879.5,587.167 879.5,581.5C 884.833,581.5 890.167,581.5 895.5,581.5C 895.5,579.5 895.5,577.5 895.5,575.5C 897.167,575.5 898.833,575.5 900.5,575.5C 900.126,568.214 903.46,564.547 910.5,564.5 Z"/></g>
<g><path style="opacity:1" fill="#f9fbfa" d="M 393.5,637.5 C 409.891,636.997 416.391,644.664 413,660.5C 406.599,670.19 398.432,672.024 388.5,666C 380.504,654.721 382.171,645.221 393.5,637.5 Z"/></g>
<g><path style="opacity:1" fill="#f8f9fa" d="M 642.5,637.5 C 660.54,637.026 667.04,645.359 662,662.5C 652.927,671.784 643.927,671.784 635,662.5C 630.342,651.977 632.842,643.644 642.5,637.5 Z"/></g>
<g><path style="opacity:1" fill="#082028" d="M 1023.5,703.5 C 1023.5,717.167 1023.5,730.833 1023.5,744.5C 1018.91,744.255 1016.24,746.422 1015.5,751C 1017.42,756.197 1018.09,761.697 1017.5,767.5C 1014.17,767.5 1010.83,767.5 1007.5,767.5C 1007.5,765.167 1007.5,762.833 1007.5,760.5C 1002.91,760.255 1000.24,762.422 999.5,767C 995.179,767.499 990.846,767.666 986.5,767.5C 987.053,774.779 983.719,778.279 976.5,778C 975.594,779.699 975.261,781.533 975.5,783.5C 971.833,783.5 968.167,783.5 964.5,783.5C 963.947,776.221 967.281,772.721 974.5,773C 975.406,771.301 975.739,769.467 975.5,767.5C 977.5,767.5 979.5,767.5 981.5,767.5C 981.5,762.167 981.5,756.833 981.5,751.5C 972.5,751.5 963.5,751.5 954.5,751.5C 955.053,758.779 951.719,762.279 944.5,762C 943.594,763.699 943.261,765.533 943.5,767.5C 939.833,767.5 936.167,767.5 932.5,767.5C 931.947,760.221 935.281,756.721 942.5,757C 943.406,755.301 943.739,753.467 943.5,751.5C 939.833,751.5 936.167,751.5 932.5,751.5C 931.947,744.221 935.281,740.721 942.5,741C 943.406,739.301 943.739,737.467 943.5,735.5C 945.833,735.5 948.167,735.5 950.5,735.5C 950.5,730.833 948.167,728.5 943.5,728.5C 943.5,725.5 943.5,722.5 943.5,719.5C 941.5,719.5 939.5,719.5 937.5,719.5C 937.5,724.833 937.5,730.167 937.5,735.5C 934.167,735.5 930.833,735.5 927.5,735.5C 927.5,730.167 927.5,724.833 927.5,719.5C 929.167,719.5 930.833,719.5 932.5,719.5C 931.947,712.221 935.281,708.721 942.5,709C 943.406,707.301 943.739,705.467 943.5,703.5C 945.167,703.5 946.833,703.5 948.5,703.5C 948.115,696.053 951.615,692.386 959,692.5C 959.499,696.152 959.665,699.818 959.5,703.5C 961.167,703.5 962.833,703.5 964.5,703.5C 964.115,696.053 967.615,692.386 975,692.5C 975.499,696.152 975.665,699.818 975.5,703.5C 977.167,703.5 978.833,703.5 980.5,703.5C 979.947,696.221 983.281,692.721 990.5,693C 991.406,691.301 991.739,689.467 991.5,687.5C 994.5,687.5 997.5,687.5 1000.5,687.5C 1000.5,692.167 1002.83,694.5 1007.5,694.5C 1007.5,702.833 1007.5,711.167 1007.5,719.5C 1009.17,719.5 1010.83,719.5 1012.5,719.5C 1014.12,714.274 1015.12,708.941 1015.5,703.5C 1018.17,703.5 1020.83,703.5 1023.5,703.5 Z"/></g>
<g><path style="opacity:1" fill="#f9fafa" d="M 351.5,831.5 C 351.167,831.5 350.833,831.5 350.5,831.5C 328.928,844.049 309.094,841.716 291,824.5C 275.087,804.026 274.42,783.026 289,761.5C 303.234,745.755 320.4,741.255 340.5,748C 347.198,750.412 352.365,754.579 356,760.5C 357.072,769.432 353.072,774.099 344,774.5C 339.503,772.841 335.003,771.007 330.5,769C 328.5,768.833 326.5,768.667 324.5,768.5C 306.048,772.043 299.215,783.043 304,801.5C 313.234,816.744 325.401,819.577 340.5,810C 343.167,809.333 345.833,809.333 348.5,810C 357.948,815.972 358.948,823.139 351.5,831.5 Z"/></g>
<g><path style="opacity:1" fill="#fafbfb" d="M 408.5,744.5 C 414.213,744.442 419.046,746.442 423,750.5C 434.881,774.928 446.214,799.594 457,824.5C 458.127,837.69 452.293,842.523 439.5,839C 435.11,835.057 432.11,830.224 430.5,824.5C 418.514,823.334 406.514,823.167 394.5,824C 392.294,827.268 390.461,830.768 389,834.5C 380.49,843.06 372.824,842.394 366,832.5C 365.39,828.764 365.723,825.097 367,821.5C 378.394,797.045 390.061,772.712 402,748.5C 404.314,747.267 406.481,745.933 408.5,744.5 Z"/></g>
<g><path style="opacity:1" fill="#fbfcfc" d="M 573.5,754.5 C 573.667,780.169 573.5,805.835 573,831.5C 568.869,840.738 562.369,842.905 553.5,838C 551.779,836.056 550.446,833.89 549.5,831.5C 549.833,817.817 549.499,804.15 548.5,790.5C 547.893,790.624 547.56,790.957 547.5,791.5C 541.965,799.392 536.298,807.226 530.5,815C 526.637,816.354 522.637,816.854 518.5,816.5C 511.833,808.329 505.333,799.995 499,791.5C 498.193,806.238 497.193,820.905 496,835.5C 494.833,836.667 493.667,837.833 492.5,839C 483.768,842.715 477.601,840.215 474,831.5C 473.833,818.5 473.667,805.5 473.5,792.5C 473.35,778.743 473.85,765.076 475,751.5C 480.667,743.642 487.5,742.476 495.5,748C 504.965,759.781 514.298,771.615 523.5,783.5C 533.326,771.502 542.993,759.335 552.5,747C 561.978,743.059 568.978,745.559 573.5,754.5 Z"/></g>
<g><path style="opacity:1" fill="#fafbfb" d="M 760.5,754.5 C 760.498,758.511 759.332,762.178 757,765.5C 748.417,778.33 740.084,791.33 732,804.5C 731.667,813.833 731.333,823.167 731,832.5C 727.909,839.128 722.743,841.628 715.5,840C 712.669,838.334 710.336,836.168 708.5,833.5C 707.715,823.546 707.215,813.546 707,803.5C 696.877,789.369 687.544,774.702 679,759.5C 678.245,756.697 678.578,754.03 680,751.5C 684.638,745.463 690.471,743.963 697.5,747C 705.449,757.063 712.782,767.563 719.5,778.5C 725.53,769.635 731.364,760.635 737,751.5C 738.833,749.667 740.667,747.833 742.5,746C 750.909,743.96 756.909,746.794 760.5,754.5 Z"/></g>
<g><path style="opacity:1" fill="#fbfcfb" d="M 637.5,811.5 C 630.833,811.5 624.167,811.5 617.5,811.5C 617.5,817.5 617.5,823.5 617.5,829.5C 617.5,830.5 617.5,831.5 617.5,832.5C 613.088,840.685 606.755,842.518 598.5,838C 596.877,835.92 595.377,833.754 594,831.5C 593.5,817.171 593.333,802.837 593.5,788.5C 593.333,777.162 593.5,765.828 594,754.5C 595.061,751.438 596.894,748.938 599.5,747C 612.071,745.373 624.738,745.04 637.5,746C 655.5,749.661 665.166,760.661 666.5,779C 666.131,798.199 656.464,809.033 637.5,811.5 Z"/></g>
<g><path style="opacity:1" fill="#0e2028" d="M 617.5,768.5 C 623.925,768.13 630.258,768.63 636.5,770C 644.898,777.605 644.231,784.272 634.5,790C 628.843,790.499 623.176,790.666 617.5,790.5C 617.5,783.167 617.5,775.833 617.5,768.5 Z"/></g>
<g><path style="opacity:1" fill="#121f27" d="M 410.5,783.5 C 411.376,783.369 412.043,783.702 412.5,784.5C 415.44,790.046 418.106,795.713 420.5,801.5C 414.872,802.495 409.206,802.829 403.5,802.5C 405.548,796.068 407.882,789.735 410.5,783.5 Z"/></g>
<g><path style="opacity:1" fill="#bcc5c9" d="M 547.5,791.5 C 547.56,790.957 547.893,790.624 548.5,790.5C 549.499,804.15 549.833,817.817 549.5,831.5C 548.833,818.167 548.167,804.833 547.5,791.5 Z"/></g>
<g><path style="opacity:1" fill="#072027" d="M -0.5,966.5 C -0.5,916.167 -0.5,865.833 -0.5,815.5C 1.16667,815.5 2.83333,815.5 4.5,815.5C 4.115,808.053 7.615,804.386 15,804.5C 15.4986,808.152 15.6653,811.818 15.5,815.5C 13.5,815.5 11.5,815.5 9.5,815.5C 9.5,820.833 9.5,826.167 9.5,831.5C 11.5,831.5 13.5,831.5 15.5,831.5C 15.2606,833.467 15.5939,835.301 16.5,837C 23.7194,836.721 27.0528,840.221 26.5,847.5C 22.8333,847.5 19.1667,847.5 15.5,847.5C 15.5,845.167 15.5,842.833 15.5,840.5C 10.6976,840.298 8.03094,842.631 7.5,847.5C 8.03094,852.369 10.6976,854.702 15.5,854.5C 15.5,862.833 15.5,871.167 15.5,879.5C 17.1667,879.5 18.8333,879.5 20.5,879.5C 20.115,872.053 23.615,868.386 31,868.5C 31.4986,872.152 31.6653,875.818 31.5,879.5C 29.1667,879.5 26.8333,879.5 24.5,879.5C 24.5,884.167 26.8333,886.5 31.5,886.5C 31.6663,893.175 31.4996,899.842 31,906.5C 27.9821,905.972 25.1488,904.972 22.5,903.5C 21.7569,901.362 21.0903,899.196 20.5,897C 23.1911,891.897 21.5244,889.063 15.5,888.5C 15.5,901.5 15.5,914.5 15.5,927.5C 19.1667,927.5 22.8333,927.5 26.5,927.5C 26.885,934.947 23.385,938.614 16,938.5C 15.5004,945.492 15.3337,952.492 15.5,959.5C 13.1667,959.5 10.8333,959.5 8.5,959.5C 8.5,964.167 10.8333,966.5 15.5,966.5C 15.5,969.5 15.5,972.5 15.5,975.5C 12.8333,975.5 10.1667,975.5 7.5,975.5C 7.66602,970.156 7.49935,964.823 7,959.5C 6.56139,964.107 4.06139,966.44 -0.5,966.5 Z"/></g>
<g><path style="opacity:1" fill="#495354" d="M 637.5,811.5 C 631.355,812.49 625.022,812.823 618.5,812.5C 618.822,818.358 618.489,824.025 617.5,829.5C 617.5,823.5 617.5,817.5 617.5,811.5C 624.167,811.5 630.833,811.5 637.5,811.5 Z"/></g>
</svg>
